_________________________  Visit us at _________________________
  
http://p2pdl.com  ____________________________  http://p2pdl.com
 
http://www.shotpix.com/images/68063058774927385162.png

Taken 2 2012 BRRip 720p x264 AAC - PRiSTiNE [P2PDL]
				
Genre: Action | Crime | Thriller
In Istanbul, retired CIA operative Bryan Mills and his wife are taken hostage by the father of a kidnapper Mills killed while rescuing his daughter.
Director: Olivier Megaton
Stars: Liam Neeson, Famke Janssen, Maggie Grace
Rated: PG 13

Info:  
http://www.imdb.com/title/tt1397280/


General
Complete name                  : Taken 2 2012 BRRip 720p x264 AAC - PRiSTiNE [P2PDL].mp4
Format                         : MPEG-4
Format profile                 : Base Media / Version 2
Codec ID                       : mp42
File size                      : 510 MiB
Duration                       : 1h 38mn
Overall bit rate mode          : Variable
Overall bit rate               : 726 Kbps

Source                         : 720p Bluray DAA (Thanks)

Video
Format                         : AVC
Format/Info                    : Advanced Video Codec
Width                          : 1 280 pixels
Height                         : 544 pixels
Display aspect ratio           : 2.35:1
Frame rate mode                : Variable
Frame rate                     : 23.976 fps
Stream size                    : 450 MiB (88%)
Writing library                : x264 core 129

Audio
Format                         : AAC
Duration                       : 1h 38mn
Bit rate mode                  : Variable
Bit rate                       : 79.8 Kbps
Channel(s)                     : 2 channels
Channel positions              : Front: L R
Sampling rate                  : 48.0 KHz
Stream size                    : 56.1 MiB (11%)
Language                       : English


Subtitle                       : Yes ( English)


Screens:
 
http://www.shotpix.com/images/92035950447567887539.jpg 
http://www.shotpix.com/images/72443815285482249661.jpg 
http://www.shotpix.com/images/06090067508544793211.jpg 
http://www.shotpix.com/images/02988404588697155931.jpg 
http://www.shotpix.com/images/70478345747997593885.jpg

Thumbs:
 
http://www.shotpix.com/images/81448301805164368092.jpg

----------------------------------------------------------------------------------------------------


Recommend to you to use latest version of VLC player. Install K-Lite Codec Pack or shark007 codecs
in case of any kind of problem in playback (For non-VLC Media Player users). Alternatively, install
Core AVC codecs, the fastest decoder that there is coupled with Community Center Codec Pack and play
on Windows Media Player Classic. Check sample to be sure.
Enjoy!

Greets to: VYTO, a2zRG, MusiK_KinG, Neon, Kuroyukihime, TorDigger, Ash968, StyLishSaLH and staff members at
ExtraTorrent, TPB, H33T, KAT, 1337x, PublicHD, Ahashare, BTScene, SilverTorrent, LimeTorrents, TorrentMafia,
P2PDL, and all others.

Encoder Notes: Looking For Early Access To Anything You Can Provide DVDScr, R5, DVDR, BluRay, Direct
Audio, Early Music Releases, Seedboxes, Dedicated Servers anything u can provide, Advance / Promo CDs/
DVDs. If You Got anything to offer contact me at "prg@hush.com".